# xmcd
#
# Track frame offsets:
#	150
#	17207
#	30217
#	49649
#	63320
#	76143
#	93196
#	113328
#	133962
#	151618
#	167559
#	181645
#	204909
#	220273
#	240451
#	260500
#	283603
#	302457
#	322642
#
# Disc length: 4585 seconds
#
# Revision: 0
# Processed by: cddbd v1.5.2PL0 Copyright (c) Steve Scherf et al.
# Submitted via: EasyCDDAExtractor 9.1.0.1
#
DISCID=db11e713
DTITLE=Various Artist - LEGEND 2008 [CD 1)
DYEAR=2008
DGENRE=ΕΝΤΕΧΝΟ
TTITLE0=ΟΡΦΕΑΣ ΠΕΡΙΔΗΣ - ΜΕΣ ΣΤΟΝ ΥΠΟΝΟΜΟ
TTITLE1=ΟΡΓΑΝΙΚΟ - ΤΗΣ ΙΦΙΓΕΝΕΙΑΣ
TTITLE2=ΣΑΒΙΝΑ ΓΙΑΝΝΑΤΟΥ - ΦΕΓΓΑΡΑΚΙ ΑΠΑΤΗΤΟ
TTITLE3=ΒΑΣΙΛΗΣ ΛΕΚΚΑΣ - ΔΕΝ ΞΕΡΩ ΤΙ ΜΟΥ ΓΙΝΕΤΑΙ
TTITLE4=ΧΡΗΣΤΟΣ ΘΗΒΑΙΟΣ - EL LALABAI
TTITLE5=ΜΙΧΑΛΗΣ ΕΜΙΡΛΗΣ - Η ΤΡΕΛΗ ΣΟΥ Η ΦΥΣΗ
TTITLE6=ΓΙΡΓΟΣ ΤΕΝΤΖΕΡΑΚΗΣ - ΗΛΙΕ ΜΟΥ
TTITLE7=ΥΠΟΓΕΙΑ ΡΕΥΜΑΤΑ - "ΜΙΚΡΗ" ΑΓΓΕΛΙΑ
TTITLE8=ΚΩΝΣΤΑΝΤΙΝΟΣ ΒΗΤΑ - "13"
TTITLE9=ΓΙΩΡΓΟΣ ΑΕΤΟΠΟΥΛΟΣ - ΜΑΥΡΟ ΚΡΑΣΙ
TTITLE10=ΕΛΙΣΑΒΕΤ ΣΠΑΝΟΥ - ΤΟ ΜΟΝΟ ΠΟΥ ΘΕΣ
TTITLE11=ΝΙΚΟΣ ΜΑΙΝΤΑΣ - ΕΜΕΝΑ ΟΙ ΦΙΛΟΙ ΜΟΥ
TTITLE12=ΝΙΚΟΣ ΚΑΡΒΕΛΑΣ - ΓΙΑΤΙ ΝΑ ΜΗΝ ΓΙΝΕΤΑΙ
TTITLE13=ΔΡΑΜΑΜΙΝΗ - ΕΧΩ ΜΙΑ ΑΓΑΠΗ
TTITLE14=ΟΛΓΑ ΒΕΝΕΤΣΑΙΝΟΥ - ΠΕΣ ΜΟΥ ΝΑ ΜΕΙΝΩ ΕΔΩ
TTITLE15=ΜΥΡΩΝ ΣΤΡΑΤΗΣ - ΙΣΤΟΣ
TTITLE16=ΕΛΕΝΗ ΠΕΤΑ - ΠΑΡΕ ΜΕ
TTITLE17=ΔΙΟΝΥΣΗΣ ΤΣΑΚΝΗΣ - ΣΚΟΤΩΝΟΥΝ Τ' ΑΛΟΓΑ ΟΤΑΝ ΓΕΡΑΣΟΥΝ
TTITLE18=ΟΡΓΑΝΙΚΟ - PANDORA'S MANHATTAN
EXTD=
EXTT0=
EXTT1=
EXTT2=
EXTT3=
EXTT4=
EXTT5=
EXTT6=
EXTT7=
EXTT8=
EXTT9=
EXTT10=
EXTT11=
EXTT12=
EXTT13=
EXTT14=
EXTT15=
EXTT16=
EXTT17=
EXTT18=
PLAYORDER=
